# xmcd
#
# Track frame offsets:
#	150
#	17548
#	37511
#	57528
#	74271
#	89770
#	109706
#	123458
#	142030
#	156062
#	179407
#	197707
#	211676
#	221944
#	232035
#	249466
#	266390
#	283695
#	303679
#
# Disc length: 4317
#
# Revision: 2
# Processed by: cddbd v1.5.1PL0 Copyright (c) Steve Scherf et al.
# Submitted via: audiograbber 1.80.04
# Normalized: r1:DSETVAR1
#
DISCID=1c10db13
DTITLE=Various Artist - The best of Ti Amo Italia
DYEAR=2002
DGENRE=Pop
TTITLE0=Umberto Tozzi and Lena Ka - Rien que des mots (Ti Amo)
TTITLE1=Allesandro Safina - Luna
TTITLE2=Zucchero and Paul Young - Senza una donna
TTITLE3=Valeria Rossi - Tre parole
TTITLE4=Raffaele - Una notte magica
TTITLE5=Jovanotti - L'ombelico del mondo
TTITLE6=Pino d'Angio - Ma quale idea
TTITLE7=Matia Bazar - Ti sento
TTITLE8=Alice and Battiato - I treni di tozeur
TTITLE9=Lucio Dalla - Caruso
TTITLE10=Riccardo Forte - Adesso Tu
TTITLE11=Bobby Solo - Una lachrima sul viso
TTITLE12=Adamo - Dolce Paola
TTITLE13=Adriano Celentano - 24000 baci
TTITLE14=Gianni Nannini - I maschi
TTITLE15=Nek - Laura non c'e
TTITLE16=Toto Cutugno - L'Italiano
TTITLE17=Angelo Branduardi - La pulce d'agua
TTITLE18=Paolo Conte - Gelato al limon
EXTD=
EXTT0=
EXTT1=
EXTT2=
EXTT3=
EXTT4=
EXTT5=
EXTT6=
EXTT7=
EXTT8=
EXTT9=
EXTT10=
EXTT11=
EXTT12=
EXTT13=
EXTT14=
EXTT15=
EXTT16=
EXTT17=
EXTT18=
PLAYORDER=
